<svg id="svg" version="1.1" xmlns="http://www.w3.org/2000/svg" xmlns:xlink="http://www.w3.org/1999/xlink" width="400" height="402.4590163934426" viewBox="0, 0, 400,402.4590163934426"><g id="svgg"><path id="path0" d="M215.164 91.815 C 158.939 95.972,115.494 131.479,100.012 185.929 C 90.249 220.263,92.594 251.979,106.548 274.317 C 133.867 318.052,208.673 327.370,259.634 293.385 C 282.690 278.009,301.382 255.674,303.584 240.867 C 304.481 234.833,300.915 227.981,295.533 225.398 C 288.822 222.175,281.411 224.695,265.847 235.492 C 254.753 243.188,249.884 245.953,241.768 249.164 C 211.105 261.297,183.201 248.936,177.213 220.567 C 170.630 189.377,190.546 145.209,214.405 138.084 C 229.163 133.676,241.612 144.356,236.073 156.674 C 234.974 159.118,232.274 163.559,229.249 167.896 C 220.470 180.487,218.158 187.563,220.185 195.644 C 223.778 209.968,244.221 216.612,264.204 209.950 C 291.620 200.810,312.722 165.858,306.847 139.320 C 299.998 108.386,261.418 88.395,215.164 91.815 " stroke="none" fill="#fbfbfb" fill-rule="evenodd"></path><path id="path1" d="M192.308 0.393 C 192.256 0.439,190.181 0.556,187.698 0.655 C 185.215 0.753,182.879 0.883,182.507 0.942 C 182.135 1.002,180.760 1.124,179.452 1.213 C 178.144 1.301,176.914 1.431,176.720 1.502 C 176.525 1.572,175.567 1.684,174.590 1.751 C 173.613 1.818,171.154 2.133,169.126 2.452 C 167.097 2.771,165.007 3.097,164.481 3.177 C 163.598 3.312,152.295 5.630,151.366 5.867 C 151.141 5.925,149.727 6.300,148.224 6.700 C 146.721 7.101,145.369 7.454,145.219 7.486 C 145.068 7.518,144.515 7.677,143.989 7.839 C 143.463 8.002,142.049 8.410,140.847 8.747 C 139.645 9.084,138.508 9.482,138.320 9.631 C 138.132 9.781,137.978 9.833,137.978 9.747 C 137.978 9.661,137.548 9.770,137.023 9.990 C 136.498 10.209,136.037 10.379,135.999 10.366 C 135.960 10.354,135.583 10.476,135.160 10.637 C 134.737 10.797,134.221 10.929,134.015 10.929 C 133.808 10.929,133.562 11.054,133.467 11.207 C 133.373 11.359,133.190 11.419,133.060 11.339 C 132.931 11.259,132.747 11.318,132.653 11.471 C 132.559 11.624,132.292 11.749,132.061 11.749 C 131.829 11.749,131.253 11.922,130.779 12.134 C 130.305 12.347,129.303 12.717,128.552 12.958 C 126.375 13.656,126.275 13.767,126.886 14.817 C 127.823 16.425,128.965 18.573,128.997 18.783 C 129.013 18.896,129.146 19.296,129.292 19.672 C 129.438 20.048,129.602 20.580,129.658 20.855 C 129.713 21.130,129.830 21.581,129.918 21.858 C 130.229 22.838,130.513 24.885,130.703 27.512 C 130.850 29.541,130.299 33.207,129.458 35.792 C 126.046 46.288,116.762 53.046,105.669 53.108 C 103.391 53.121,103.295 53.201,103.993 54.508 C 107.924 61.878,107.182 72.241,102.233 79.098 C 100.294 81.786,95.285 86.339,94.268 86.339 C 94.086 86.339,93.610 86.569,93.212 86.849 C 92.559 87.309,91.339 87.812,90.984 87.768 C 90.908 87.759,90.709 87.866,90.541 88.006 C 89.081 89.217,79.686 89.688,76.630 88.704 C 76.090 88.530,76.074 88.629,76.073 92.008 C 76.072 99.264,73.340 104.620,67.704 108.411 C 63.905 110.967,61.818 111.595,57.104 111.602 C 53.404 111.608,47.746 109.807,46.010 108.071 C 45.779 107.839,45.497 107.650,45.385 107.650 C 45.272 107.650,44.602 107.097,43.897 106.421 C 42.219 104.814,42.133 104.850,42.286 107.095 C 42.433 109.266,42.164 111.561,41.789 111.330 C 41.650 111.244,41.608 111.360,41.695 111.587 C 42.403 113.432,37.809 119.694,34.495 121.401 C 34.006 121.652,33.232 122.054,32.775 122.294 C 32.318 122.533,31.734 122.770,31.477 122.819 C 31.221 122.869,31.011 122.928,31.011 122.950 C 31.011 123.173,29.080 123.342,26.503 123.345 C 23.434 123.349,21.311 122.949,21.311 122.367 C 21.311 122.220,21.193 122.172,21.048 122.262 C 20.803 122.413,18.613 121.456,18.306 121.064 C 18.231 120.968,17.844 120.682,17.447 120.430 L 16.724 119.970 15.624 122.622 C 14.302 125.809,11.493 133.325,10.702 135.792 C 10.389 136.769,9.654 139.073,9.070 140.911 C 8.485 142.750,7.920 144.168,7.814 144.062 C 7.708 143.956,7.700 144.074,7.796 144.324 C 7.892 144.575,7.665 145.862,7.291 147.185 C 5.923 152.026,3.918 161.276,2.861 167.623 C 2.836 167.773,2.797 168.242,2.774 168.664 C 2.751 169.092,2.613 169.357,2.462 169.264 C 2.311 169.171,2.259 169.272,2.344 169.493 C 2.428 169.711,2.248 171.900,1.944 174.357 C 1.641 176.815,1.314 179.870,1.218 181.148 C 1.123 182.425,0.999 183.762,0.944 184.120 C 0.453 187.289,0.264 204.520,0.655 210.383 C 0.950 214.796,1.331 219.388,1.507 220.628 C 1.571 221.079,1.695 222.186,1.784 223.087 C 1.872 223.989,2.113 225.833,2.320 227.186 C 2.526 228.538,2.762 230.137,2.844 230.738 C 2.926 231.339,3.050 232.138,3.119 232.514 C 3.188 232.889,3.311 233.627,3.393 234.153 C 3.475 234.679,3.607 235.417,3.686 235.792 C 3.766 236.168,3.890 236.783,3.963 237.158 C 4.398 239.396,4.458 239.677,5.192 242.896 C 5.518 244.324,5.847 245.799,5.924 246.175 C 6.167 247.369,6.241 247.678,6.284 247.678 C 6.307 247.678,6.364 247.862,6.410 248.087 C 6.456 248.313,6.644 249.050,6.828 249.726 C 7.011 250.401,7.197 251.139,7.241 251.365 C 7.285 251.591,7.531 252.498,7.788 253.380 C 8.045 254.263,8.294 255.185,8.341 255.429 C 8.389 255.674,8.453 255.905,8.483 255.943 C 8.513 255.980,8.556 256.103,8.577 256.216 C 8.598 256.329,8.691 256.544,8.784 256.694 C 8.876 256.844,9.052 257.398,9.174 257.923 C 9.486 259.270,9.487 259.275,9.563 259.426 C 9.600 259.501,9.657 259.655,9.689 259.768 C 9.721 259.880,9.819 260.157,9.907 260.383 C 10.059 260.773,11.280 264.468,11.351 264.754 C 11.369 264.829,11.528 265.237,11.703 265.660 C 11.878 266.083,12.022 266.585,12.022 266.776 C 12.022 266.966,12.114 267.214,12.227 267.327 C 12.339 267.440,12.442 267.614,12.455 267.714 C 12.468 267.814,12.560 268.111,12.660 268.374 C 13.076 269.471,13.201 269.823,13.266 270.082 C 13.303 270.232,13.454 270.663,13.601 271.038 C 13.749 271.414,13.863 271.783,13.856 271.858 C 13.848 271.933,14.012 272.302,14.220 272.678 C 14.428 273.053,14.613 273.422,14.631 273.497 C 14.693 273.749,15.082 274.718,15.496 275.649 C 15.721 276.157,15.930 276.742,15.961 276.950 C 15.991 277.158,16.163 277.474,16.342 277.653 C 16.520 277.832,16.667 278.140,16.667 278.337 C 16.667 278.534,16.776 278.909,16.909 279.170 C 17.043 279.431,17.455 280.321,17.825 281.148 C 18.909 283.568,21.201 288.379,22.315 290.574 C 22.467 290.874,22.715 291.366,22.866 291.667 C 23.266 292.467,23.651 293.172,24.358 294.394 C 24.704 294.993,25.010 295.644,25.039 295.842 C 25.068 296.040,25.410 296.618,25.797 297.126 C 26.185 297.635,26.503 298.187,26.503 298.353 C 26.503 298.519,26.933 299.294,27.459 300.075 C 27.985 300.856,28.415 301.595,28.415 301.716 C 28.415 301.838,29.034 302.854,29.790 303.975 C 30.547 305.096,31.245 306.227,31.343 306.490 C 31.601 307.185,38.360 317.277,39.287 318.351 C 39.719 318.852,40.589 320.000,41.219 320.902 C 42.583 322.854,44.032 324.742,44.888 325.683 C 45.229 326.059,45.797 326.775,46.149 327.276 C 46.501 327.776,47.050 328.459,47.370 328.795 C 47.689 329.130,48.381 329.923,48.907 330.556 C 49.433 331.189,50.171 332.050,50.546 332.468 C 50.922 332.887,51.844 333.941,52.596 334.810 C 53.347 335.679,56.609 339.053,59.844 342.307 C 65.107 347.601,67.057 349.444,70.191 352.086 C 70.702 352.516,71.577 353.299,72.135 353.825 C 72.694 354.351,73.556 355.089,74.052 355.464 C 75.070 356.235,76.067 357.044,76.746 357.650 C 76.999 357.876,77.938 358.613,78.834 359.290 C 79.729 359.966,80.586 360.614,80.737 360.730 C 80.887 360.847,81.625 361.400,82.376 361.960 C 83.127 362.520,83.904 363.132,84.103 363.320 C 84.302 363.508,84.549 363.661,84.651 363.662 C 84.753 363.662,85.193 363.969,85.630 364.345 C 86.067 364.720,86.504 365.027,86.603 365.027 C 86.702 365.027,87.032 365.260,87.338 365.545 C 87.643 365.829,88.250 366.260,88.687 366.503 C 89.124 366.745,89.788 367.171,90.164 367.448 C 90.540 367.726,91.585 368.432,92.486 369.017 C 93.388 369.603,94.187 370.158,94.262 370.250 C 94.337 370.343,94.891 370.685,95.492 371.010 C 96.093 371.336,97.199 371.986,97.951 372.456 C 99.903 373.676,102.318 375.079,104.372 376.186 C 105.348 376.713,106.238 377.276,106.348 377.438 C 106.459 377.600,106.551 377.625,106.553 377.494 C 106.555 377.363,106.728 377.397,106.936 377.570 C 107.144 377.743,109.848 379.153,112.943 380.704 C 116.039 382.255,118.481 383.623,118.370 383.745 C 118.260 383.868,118.306 383.890,118.472 383.795 C 118.638 383.700,120.194 384.223,121.930 384.957 C 128.784 387.855,140.711 392.350,141.547 392.350 C 141.706 392.350,141.779 392.442,141.709 392.555 C 141.640 392.667,142.022 392.792,142.557 392.831 C 143.093 392.871,143.696 393.039,143.897 393.206 C 144.098 393.373,144.262 393.445,144.262 393.366 C 144.262 393.287,144.846 393.401,145.560 393.620 C 149.641 394.867,158.213 397.065,160.315 397.403 C 160.955 397.505,161.409 397.700,161.326 397.835 C 161.242 397.971,161.358 398.011,161.582 397.924 C 161.807 397.838,163.320 398.019,164.943 398.326 C 166.567 398.633,168.265 398.954,168.716 399.038 C 169.167 399.122,170.484 399.330,171.644 399.500 C 172.803 399.670,173.688 399.912,173.610 400.038 C 173.533 400.164,173.644 400.200,173.859 400.117 C 174.073 400.035,176.385 400.215,178.996 400.518 C 185.618 401.285,185.810 401.304,189.481 401.553 C 193.802 401.847,212.468 401.840,216.120 401.543 C 217.698 401.415,219.542 401.271,220.219 401.224 C 220.895 401.177,222.063 401.063,222.814 400.971 C 223.566 400.879,224.795 400.742,225.546 400.667 C 226.298 400.591,227.220 400.480,227.596 400.420 C 227.971 400.360,229.262 400.174,230.464 400.007 C 233.212 399.626,234.114 399.492,234.973 399.338 C 235.348 399.270,236.086 399.148,236.612 399.066 C 237.138 398.984,237.876 398.852,238.251 398.773 C 238.627 398.693,239.242 398.569,239.617 398.496 C 240.864 398.254,241.661 398.093,242.213 397.973 C 244.872 397.393,246.855 396.979,247.582 396.851 C 248.060 396.766,248.532 396.648,248.630 396.587 C 248.728 396.526,249.108 396.418,249.473 396.346 C 250.374 396.169,255.025 394.916,256.626 394.418 C 257.339 394.197,257.923 394.086,257.923 394.172 C 257.923 394.259,258.108 394.176,258.333 393.989 C 258.559 393.802,258.743 393.741,258.743 393.852 C 258.743 393.964,258.928 393.903,259.153 393.716 C 259.378 393.529,259.563 393.454,259.563 393.549 C 259.563 393.645,259.995 393.542,260.524 393.322 C 261.053 393.101,261.545 392.915,261.617 392.908 C 261.877 392.885,262.321 392.756,262.842 392.552 C 263.232 392.400,266.927 391.179,267.213 391.108 C 267.288 391.090,267.696 390.931,268.119 390.756 C 268.542 390.581,269.044 390.437,269.235 390.437 C 269.425 390.437,269.673 390.345,269.786 390.232 C 269.899 390.120,270.073 390.017,270.173 390.004 C 270.273 389.991,270.540 389.910,270.765 389.825 C 270.990 389.740,271.421 389.577,271.721 389.462 C 272.022 389.348,272.329 389.234,272.404 389.208 C 272.866 389.048,273.758 388.684,274.557 388.329 C 275.064 388.104,275.617 387.893,275.786 387.861 C 275.955 387.828,276.569 387.595,277.151 387.343 C 277.733 387.091,278.257 386.885,278.315 386.885 C 278.449 386.885,280.133 386.134,285.383 383.734 C 287.196 382.904,289.188 381.944,290.027 381.495 C 290.328 381.335,291.189 380.898,291.940 380.524 C 294.084 379.458,296.014 378.393,296.298 378.119 C 296.441 377.982,296.726 377.869,296.932 377.869 C 297.137 377.869,297.842 377.500,298.497 377.049 C 299.153 376.598,299.789 376.229,299.913 376.229 C 300.036 376.228,300.874 375.737,301.776 375.137 C 302.678 374.536,303.512 374.045,303.629 374.045 C 303.747 374.044,305.099 373.205,306.635 372.180 C 308.170 371.154,309.638 370.238,309.896 370.142 C 310.577 369.891,316.239 366.074,316.352 365.790 C 316.404 365.658,317.726 364.692,319.289 363.643 C 320.852 362.595,322.132 361.647,322.134 361.538 C 322.135 361.428,322.873 360.864,323.773 360.284 C 324.673 359.704,325.410 359.136,325.410 359.023 C 325.410 358.909,325.890 358.498,326.477 358.109 C 327.065 357.721,327.839 357.120,328.199 356.775 C 328.558 356.430,329.382 355.717,330.029 355.191 C 330.676 354.665,331.530 353.949,331.928 353.599 C 332.325 353.249,333.371 352.327,334.251 351.550 C 336.684 349.403,347.459 338.632,349.317 336.489 C 350.219 335.450,351.202 334.328,351.503 333.996 C 351.803 333.664,352.418 332.934,352.869 332.373 C 353.320 331.812,353.996 331.024,354.372 330.621 C 354.747 330.219,355.608 329.158,356.284 328.264 C 356.960 327.371,357.637 326.505,357.787 326.341 C 357.937 326.177,358.367 325.638,358.743 325.143 C 359.119 324.649,359.703 323.922,360.041 323.529 C 360.379 323.136,360.655 322.741,360.655 322.652 C 360.656 322.562,360.963 322.132,361.338 321.696 C 361.714 321.259,362.021 320.829,362.022 320.739 C 362.022 320.650,362.329 320.220,362.705 319.783 C 363.080 319.346,363.387 318.916,363.388 318.827 C 363.388 318.737,363.695 318.307,364.071 317.870 C 364.446 317.434,364.754 316.993,364.754 316.891 C 364.754 316.789,364.912 316.543,365.106 316.345 C 365.299 316.146,365.756 315.492,366.122 314.891 C 366.487 314.290,366.884 313.675,367.004 313.525 C 367.124 313.374,367.773 312.391,368.446 311.339 C 369.119 310.287,369.805 309.233,369.970 308.997 C 370.352 308.449,371.609 306.269,372.559 304.508 C 372.964 303.757,373.380 303.081,373.483 303.005 C 373.692 302.853,379.508 291.924,379.508 291.683 C 379.508 291.599,380.073 290.393,380.764 289.003 C 384.140 282.206,388.692 270.275,391.526 260.792 C 392.020 259.139,392.486 257.602,392.561 257.377 C 392.637 257.152,392.731 256.783,392.769 256.557 C 392.808 256.332,393.230 254.672,393.707 252.869 C 394.184 251.066,394.816 248.484,395.111 247.131 C 395.407 245.779,395.691 244.488,395.743 244.262 C 395.795 244.037,395.937 243.299,396.058 242.623 C 396.180 241.947,396.294 241.332,396.311 241.257 C 396.329 241.182,396.434 240.567,396.545 239.891 C 396.656 239.214,396.860 238.108,396.999 237.432 C 397.311 235.910,397.489 234.741,397.715 232.726 C 397.812 231.866,397.995 231.227,398.122 231.306 C 398.250 231.385,398.285 231.269,398.201 231.049 C 398.116 230.829,398.235 229.070,398.464 227.141 C 398.694 225.212,398.955 222.773,399.045 221.721 C 399.135 220.669,399.256 219.440,399.314 218.989 C 399.944 214.066,399.959 189.377,399.333 188.263 C 399.287 188.182,399.164 186.947,399.060 185.519 C 398.956 184.092,398.831 182.555,398.783 182.104 C 398.425 178.775,398.325 177.940,398.227 177.459 C 398.166 177.158,398.043 176.298,397.952 175.546 C 397.862 174.795,397.722 173.750,397.640 173.224 C 397.559 172.698,397.454 171.960,397.408 171.585 C 397.361 171.209,397.237 170.471,397.131 169.945 C 397.026 169.419,396.903 168.682,396.858 168.306 C 396.781 167.659,396.633 166.844,396.311 165.301 C 396.233 164.925,396.098 164.249,396.010 163.798 C 395.923 163.347,395.823 162.855,395.788 162.705 C 395.753 162.555,395.557 161.694,395.352 160.792 C 395.147 159.891,394.964 159.092,394.945 159.016 C 394.885 158.773,394.197 155.614,394.113 155.191 C 394.068 154.966,394.012 154.781,393.989 154.781 C 393.966 154.781,393.905 154.597,393.854 154.372 C 393.643 153.446,392.348 148.680,391.980 147.473 C 391.762 146.759,391.648 146.175,391.727 146.175 C 391.806 146.175,391.717 145.990,391.530 145.765 C 391.343 145.540,391.282 145.355,391.393 145.355 C 391.505 145.355,391.444 145.171,391.257 144.945 C 391.070 144.720,390.987 144.536,391.073 144.536 C 391.159 144.536,391.049 144.105,390.829 143.579 C 390.610 143.053,390.508 142.623,390.604 142.623 C 390.699 142.623,390.650 142.469,390.494 142.281 C 390.338 142.094,390.197 141.849,390.180 141.738 C 390.143 141.493,390.100 141.357,389.308 138.934 C 388.965 137.883,388.668 136.960,388.649 136.885 C 388.631 136.810,388.460 136.380,388.270 135.929 C 388.079 135.478,387.894 134.986,387.856 134.836 C 387.819 134.686,387.647 134.217,387.474 133.794 C 387.300 133.371,387.158 132.855,387.158 132.649 C 387.158 132.442,387.036 132.197,386.885 132.104 C 386.735 132.011,386.612 131.746,386.612 131.514 C 386.612 131.283,386.441 130.706,386.231 130.233 C 385.840 129.348,385.455 128.384,385.396 128.142 C 385.378 128.067,385.226 127.760,385.058 127.459 C 384.891 127.158,384.743 126.820,384.730 126.706 C 384.716 126.593,384.525 126.068,384.305 125.540 C 384.084 125.012,383.886 124.490,383.865 124.380 C 383.843 124.270,383.689 123.934,383.521 123.634 C 383.353 123.333,383.205 123.026,383.191 122.951 C 383.150 122.733,381.979 120.221,381.121 118.511 C 380.687 117.647,380.401 116.940,380.485 116.940 C 380.569 116.940,380.376 116.571,380.055 116.120 C 379.734 115.669,379.549 115.301,379.645 115.301 C 379.740 115.301,379.564 114.943,379.254 114.507 C 378.943 114.071,378.689 113.597,378.689 113.455 C 378.689 113.313,378.398 112.651,378.044 111.984 C 377.689 111.317,377.259 110.500,377.088 110.167 C 376.562 109.147,376.153 108.383,375.489 107.175 C 375.139 106.538,374.537 105.435,374.150 104.724 C 373.764 104.013,373.213 103.101,372.926 102.698 C 372.639 102.295,372.404 101.825,372.404 101.653 C 372.404 101.482,371.786 100.425,371.030 99.305 C 370.274 98.184,369.726 97.268,369.813 97.268 C 370.043 97.268,359.837 82.201,359.170 81.557 C 358.859 81.257,358.193 80.365,357.689 79.577 C 357.186 78.788,356.676 78.142,356.557 78.142 C 356.438 78.142,355.947 77.527,355.464 76.776 C 354.982 76.025,354.494 75.410,354.379 75.410 C 354.265 75.410,353.853 74.929,353.464 74.342 C 353.076 73.755,352.475 72.976,352.130 72.611 C 351.785 72.245,350.888 71.223,350.137 70.340 C 349.385 69.456,348.463 68.398,348.087 67.989 C 347.712 67.580,346.544 66.300,345.492 65.145 C 342.910 62.309,336.347 55.739,333.914 53.552 C 332.827 52.575,331.467 51.346,330.892 50.820 C 330.317 50.294,329.386 49.495,328.824 49.044 C 328.261 48.593,327.468 47.917,327.062 47.541 C 326.655 47.165,325.778 46.436,325.114 45.921 C 324.450 45.406,323.723 44.824,323.497 44.627 C 321.593 42.967,321.167 42.623,321.012 42.623 C 320.865 42.623,318.737 41.005,316.920 39.512 C 316.683 39.318,316.099 38.928,315.622 38.646 C 315.145 38.364,314.754 38.045,314.754 37.938 C 314.754 37.830,314.530 37.671,314.256 37.584 C 313.982 37.497,313.521 37.208,313.231 36.942 C 312.942 36.676,312.319 36.217,311.846 35.921 C 309.709 34.581,306.949 32.668,306.766 32.399 C 306.646 32.222,306.562 32.214,306.557 32.377 C 306.553 32.533,306.463 32.519,306.348 32.345 C 306.238 32.178,305.656 31.775,305.055 31.450 C 304.454 31.126,303.101 30.311,302.049 29.639 C 300.997 28.967,299.092 27.845,297.814 27.145 C 296.537 26.446,295.162 25.644,294.759 25.363 C 293.366 24.393,282.078 18.902,277.728 17.077 C 275.326 16.070,272.992 15.091,272.541 14.901 C 272.090 14.711,271.199 14.354,270.560 14.108 C 269.921 13.862,268.938 13.483,268.374 13.266 C 261.279 10.526,250.425 7.221,243.306 5.634 C 236.484 4.113,233.816 3.590,229.372 2.903 C 226.869 2.516,226.052 2.388,225.683 2.325 C 225.458 2.286,224.540 2.166,223.643 2.057 C 222.747 1.948,221.812 1.820,221.565 1.772 C 221.319 1.725,220.147 1.604,218.960 1.504 C 217.774 1.404,216.496 1.279,216.120 1.226 C 215.745 1.172,214.331 1.053,212.978 0.962 C 211.626 0.870,209.790 0.730,208.900 0.652 C 207.092 0.492,192.457 0.264,192.308 0.393 M238.251 91.956 C 282.647 96.096,312.066 123.119,307.526 155.587 C 304.121 179.939,284.686 203.937,263.064 210.487 C 240.445 217.338,219.358 207.759,219.404 190.654 C 219.423 183.957,221.236 179.614,228.562 168.716 C 236.577 156.793,237.827 153.914,237.130 148.975 C 235.890 140.181,226.318 135.362,215.301 137.985 C 192.720 143.361,172.245 185.076,176.658 216.714 C 182.037 255.283,223.511 265.654,261.951 238.043 C 283.060 222.881,292.138 220.501,299.371 228.234 C 306.862 236.242,304.477 248.031,292.165 263.854 C 266.552 296.772,226.174 315.727,185.492 313.933 C 113.850 310.774,79.331 259.790,99.566 187.022 C 117.127 123.866,172.609 85.835,238.251 91.956 " stroke="none" fill="#040404" fill-rule="evenodd"></path><path id="path2" d="M292.760 114.754 C 293.652 115.656,294.443 116.393,294.518 116.393 C 294.594 116.393,293.925 115.656,293.033 114.754 C 292.141 113.852,291.349 113.115,291.274 113.115 C 291.199 113.115,291.867 113.852,292.760 114.754 M132.514 128.825 C 131.394 129.952,130.540 130.874,130.615 130.874 C 130.690 130.874,131.667 129.952,132.787 128.825 C 133.906 127.698,134.761 126.776,134.686 126.776 C 134.611 126.776,133.633 127.698,132.514 128.825 M232.787 141.069 C 232.787 141.116,233.186 141.516,233.675 141.957 L 234.563 142.760 233.760 141.872 C 233.012 141.044,232.787 140.858,232.787 141.069 M219.489 190.574 C 219.490 191.626,219.539 192.023,219.598 191.456 C 219.657 190.889,219.656 190.028,219.596 189.543 C 219.536 189.058,219.487 189.522,219.489 190.574 M224.044 203.364 C 224.044 203.411,224.443 203.811,224.932 204.252 L 225.820 205.055 225.017 204.167 C 224.269 203.339,224.044 203.153,224.044 203.364 M217.828 253.751 C 218.391 253.810,219.314 253.810,219.877 253.751 C 220.441 253.692,219.980 253.644,218.852 253.644 C 217.725 253.644,217.264 253.692,217.828 253.751 M282.099 274.932 L 279.372 277.732 282.172 275.005 C 284.773 272.472,285.097 272.131,284.899 272.131 C 284.859 272.131,283.599 273.391,282.099 274.932 " stroke="none" fill="#848484" fill-rule="evenodd"></path><path id="path3" d="" stroke="none" fill="#747474" fill-rule="evenodd"></path><path id="path4" d="M223.850 91.460 C 224.871 91.512,226.469 91.512,227.402 91.459 C 228.335 91.406,227.500 91.363,225.546 91.363 C 223.593 91.363,222.830 91.407,223.850 91.460 M246.920 212.766 C 247.405 212.826,248.266 212.827,248.833 212.768 C 249.400 212.709,249.003 212.659,247.951 212.658 C 246.899 212.657,246.435 212.705,246.920 212.766 M93.813 226.366 C 93.812 227.719,93.858 228.306,93.916 227.672 C 93.973 227.038,93.973 225.931,93.917 225.213 C 93.861 224.495,93.814 225.014,93.813 226.366 M116.393 287.022 C 116.903 287.548,117.382 287.978,117.457 287.978 C 117.532 287.978,117.176 287.548,116.667 287.022 C 116.157 286.496,115.678 286.066,115.603 286.066 C 115.528 286.066,115.884 286.496,116.393 287.022 M190.096 314.134 C 190.734 314.192,191.779 314.192,192.418 314.134 C 193.057 314.077,192.534 314.030,191.257 314.030 C 189.980 314.030,189.457 314.077,190.096 314.134 " stroke="none" fill="#646464" fill-rule="evenodd"></path></g></svg>