<svg width="138" height="225" viewBox="0 0 138 225" fill="none" xmlns="http://www.w3.org/2000/svg">
<path d="M10.5995 3.49939C10.5192 3.49939 10.4189 3.45925 10.3587 3.37898C10.2583 3.25856 10.2784 3.05786 10.3988 2.95752C11.6632 1.93398 13.0079 0.990715 14.4127 0.167868C14.5532 0.0875905 14.7339 0.127729 14.8342 0.268215C14.9145 0.408701 14.8743 0.589324 14.7339 0.689671C13.3691 1.51252 12.0245 2.43571 10.8002 3.43919C10.7199 3.47932 10.6597 3.49939 10.5995 3.49939Z" fill="#FCFEFF"/>
<path d="M0.965983 16.1431C0.925844 16.1431 0.885704 16.1431 0.845565 16.1231C0.685009 16.0629 0.624803 15.8822 0.685012 15.7217C2.19022 12.2898 4.23731 9.13888 6.78614 6.34922C6.90655 6.2288 7.08718 6.2288 7.2076 6.32915C7.32801 6.44957 7.32802 6.63019 7.22767 6.75061C4.71898 9.48006 2.71203 12.5708 1.22689 15.9424C1.18675 16.0829 1.0864 16.1431 0.965983 16.1431Z" fill="#FCFEFF"/>
<path d="M25.4708 54.3554C20.8348 53.2315 16.6202 50.8633 13.2284 47.4515C3.23387 37.3767 3.29407 20.9398 13.3689 10.9452C23.4438 0.93053 39.7803 0.950601 49.8351 11.0054C53.1465 14.3169 55.4746 18.411 56.5985 22.9066C56.7992 23.6692 56.2974 24.4519 55.5147 24.6125L50.6579 25.5557C49.9354 25.6962 49.233 25.2547 49.0524 24.5322C48.1493 21.1806 46.3029 18.1501 43.6537 15.7819C36.5291 9.37977 25.531 9.68081 18.7475 16.4643C11.7032 23.5287 11.7032 35.0085 18.7676 42.0528C21.0756 44.3608 23.9054 45.9664 27.0161 46.7892C27.7186 46.9699 28.1802 47.6723 28.0397 48.3747L27.1566 53.2516C27.0161 54.0343 26.2334 54.536 25.4708 54.3554Z" fill="#FFC700"/>
<path d="M25.7919 54.7969C25.6514 54.7969 25.5109 54.7768 25.3704 54.7367C20.6742 53.5927 16.3593 51.1844 12.9274 47.7124C2.75219 37.4569 2.81239 20.8193 13.0679 10.624C23.2832 0.4689 39.9007 0.48897 50.0959 10.6842C53.4475 14.0358 55.8157 18.2103 56.9797 22.766C57.1002 23.2477 57.0199 23.7495 56.759 24.1508C56.4981 24.5723 56.0766 24.8533 55.595 24.9536L50.7382 25.8969C49.815 26.0775 48.9118 25.4955 48.671 24.5924C47.788 21.301 45.9616 18.3508 43.3927 16.0428C36.3885 9.76105 25.7116 10.042 19.0486 16.7251C12.1647 23.629 12.1647 34.8479 19.0686 41.7517C21.3164 43.9995 24.106 45.585 27.1365 46.3677C28.0396 46.6085 28.6217 47.5117 28.4611 48.4148L27.5781 53.2917C27.4978 53.7733 27.1967 54.2149 26.7953 54.4758C26.4742 54.6965 26.1331 54.7969 25.7919 54.7969ZM31.5518 3.86063C25.0694 3.86063 18.587 6.30911 13.6298 11.2261C3.69545 21.1003 3.63524 37.216 13.4893 47.1705C16.8208 50.5221 20.9752 52.8702 25.551 53.974C25.8119 54.0342 26.0929 53.9941 26.3137 53.8335C26.5344 53.6931 26.695 53.4522 26.7552 53.1913L27.6383 48.3145C27.7386 47.8127 27.3974 47.311 26.8957 47.1705C23.7047 46.3476 20.7946 44.6819 18.4465 42.3338C11.2415 35.1288 11.2415 23.3882 18.4264 16.1833C21.778 12.8317 26.2535 10.905 31.0099 10.7846C35.7864 10.6441 40.3422 12.3299 43.8744 15.4808C46.5436 17.8892 48.4502 20.9799 49.3935 24.4117C49.534 24.9135 50.0357 25.2346 50.5375 25.1342L55.3943 24.191C55.6552 24.1308 55.896 23.9903 56.0365 23.7495C56.177 23.5287 56.2171 23.2477 56.1569 22.9868C55.033 18.5715 52.725 14.5175 49.4939 11.2663C44.5768 6.32918 38.0744 3.86063 31.5518 3.86063Z" fill="#114F85"/>
<path d="M49.7748 47.4715C44.9983 52.248 38.5158 54.9574 31.7725 55.0377C30.9697 55.0377 30.3476 54.3754 30.3677 53.5927L30.5884 48.6355C30.6286 47.9131 31.2106 47.331 31.9531 47.311C36.5691 47.1906 41.0044 45.304 44.2958 42.0126C47.5872 38.7213 49.4737 34.2859 49.5942 29.6499C49.6142 28.9274 50.1762 28.3253 50.9187 28.2852L55.8759 28.0443C56.6787 28.0042 57.341 28.6464 57.3209 29.4291C57.2607 36.1925 54.5513 42.695 49.7748 47.4715Z" fill="#F1416C"/>
<path d="M31.7726 55.4391C31.2909 55.4391 30.8293 55.2384 30.4881 54.8972C30.1469 54.536 29.9663 54.0543 29.9864 53.5726L30.2071 48.6155C30.2473 47.6923 31.0099 46.9296 31.9532 46.9096C36.5089 46.7892 40.8038 44.9428 44.0149 41.7317C47.2461 38.5005 49.0724 34.2056 49.1928 29.6499C49.2129 28.7066 49.9555 27.944 50.8987 27.9038L55.8559 27.663C56.3375 27.6429 56.8393 27.8236 57.1805 28.1647C57.5417 28.5059 57.7223 28.9675 57.7223 29.4693C57.6621 36.2929 54.8524 42.9559 50.0357 47.7726C45.2391 52.5692 38.5761 55.3789 31.7726 55.4591C31.7726 55.4391 31.7726 55.4391 31.7726 55.4391ZM55.9562 28.4658C55.9362 28.4658 55.9161 28.4658 55.9161 28.4658L50.9589 28.7066C50.4371 28.7267 50.0357 29.1481 50.0157 29.67C49.8953 34.4465 47.9686 38.942 44.5969 42.3137C41.2253 45.6853 36.7498 47.612 31.9732 47.7324C31.4514 47.7525 31.03 48.1539 31.0099 48.6757L30.7892 53.6328C30.7691 53.9138 30.8694 54.1747 31.0701 54.3754C31.2507 54.5761 31.5117 54.6764 31.7926 54.6764C38.3955 54.5962 44.8378 51.8868 49.5139 47.2307C54.17 42.5746 56.8995 36.0922 56.9597 29.4893C56.9597 29.2284 56.8593 28.9675 56.6587 28.7668C56.4379 28.5661 56.1971 28.4658 55.9562 28.4658Z" fill="#114F85"/>
<path d="M27.9191 29.5691C26.6948 29.5691 25.7114 28.5857 25.7114 27.3615C25.7114 26.1372 26.6948 25.1538 27.9191 25.1538C29.1433 25.1538 30.1267 26.1372 30.1267 27.3615C30.1267 28.5857 29.1433 29.5691 27.9191 29.5691ZM27.9191 25.9365C27.1364 25.9365 26.5142 26.5587 26.5142 27.3414C26.5142 28.1241 27.1364 28.7463 27.9191 28.7463C28.7018 28.7463 29.3239 28.1241 29.3239 27.3414C29.3239 26.5587 28.7018 25.9365 27.9191 25.9365Z" fill="#FCFEFF"/>
<path d="M34.2813 34.3662C33.0571 34.3662 32.0737 33.3828 32.0737 32.1586C32.0737 30.9343 33.0571 29.9509 34.2813 29.9509C35.5056 29.9509 36.4889 30.9343 36.4889 32.1586C36.4889 33.3828 35.5056 34.3662 34.2813 34.3662ZM34.2813 30.7537C33.4986 30.7537 32.8765 31.3759 32.8765 32.1586C32.8765 32.9413 33.4986 33.5635 34.2813 33.5635C35.064 33.5635 35.6862 32.9413 35.6862 32.1586C35.6862 31.3759 35.064 30.7537 34.2813 30.7537Z" fill="#FCFEFF"/>
<path d="M27.9192 34.3663C27.8389 34.3663 27.7386 34.3462 27.6784 34.286C27.4978 34.1455 27.4777 33.9047 27.5981 33.724L34.0605 25.2948C34.201 25.1142 34.4418 25.0942 34.6225 25.2146C34.8031 25.335 34.8232 25.5959 34.7027 25.7765L28.2403 34.2057C28.1601 34.306 28.0396 34.3663 27.9192 34.3663Z" fill="#FCFEFF"/>
<path d="M57.5619 62.1624C59.8785 62.1624 61.7564 60.2845 61.7564 57.9679C61.7564 55.6514 59.8785 53.7734 57.5619 53.7734C55.2454 53.7734 53.3674 55.6514 53.3674 57.9679C53.3674 60.2845 55.2454 62.1624 57.5619 62.1624Z" fill="#FFC700"/>
<path d="M57.5618 62.5638C55.033 62.5638 52.9658 60.4967 52.9658 57.9679C52.9658 55.4392 55.033 53.372 57.5618 53.372C60.0905 53.372 62.1577 55.4392 62.1577 57.9679C62.1577 60.4967 60.0905 62.5638 57.5618 62.5638ZM57.5618 54.1748C55.4745 54.1748 53.7686 55.8807 53.7686 57.9679C53.7686 60.0551 55.4745 61.761 57.5618 61.761C59.649 61.761 61.3549 60.0551 61.3549 57.9679C61.3549 55.8807 59.649 54.1748 57.5618 54.1748Z" fill="#114F85"/>
<path d="M64.3253 66.5175C65.3118 66.5175 66.1115 65.7178 66.1115 64.7313C66.1115 63.7448 65.3118 62.9451 64.3253 62.9451C63.3388 62.9451 62.5391 63.7448 62.5391 64.7313C62.5391 65.7178 63.3388 66.5175 64.3253 66.5175Z" fill="#F1416C"/>
<path d="M64.3253 66.9389C63.1211 66.9389 62.1377 65.9555 62.1377 64.7514C62.1377 63.5472 63.1211 62.5638 64.3253 62.5638C65.5294 62.5638 66.5128 63.5472 66.5128 64.7514C66.5128 65.9555 65.5495 66.9389 64.3253 66.9389ZM64.3253 63.3465C63.5626 63.3465 62.9405 63.9686 62.9405 64.7313C62.9405 65.4939 63.5626 66.1161 64.3253 66.1161C65.0879 66.1161 65.7101 65.4939 65.7101 64.7313C65.7101 63.9686 65.0879 63.3465 64.3253 63.3465Z" fill="#114F85"/>
<path d="M44.1955 49.1172C44.0951 49.1172 43.9747 49.057 43.9346 48.9566C43.8543 48.8162 43.9145 48.6355 44.0751 48.5553C44.1152 48.5352 47.4467 46.8092 49.4135 43.7386C49.4938 43.5981 49.6945 43.558 49.835 43.6383C49.9755 43.7185 50.0156 43.9192 49.9353 44.0597C47.8481 47.2708 44.4564 49.0168 44.3159 49.0771C44.2758 49.0971 44.2356 49.1172 44.1955 49.1172Z" fill="white"/>
<path d="M80.3207 110.771L69.443 164.737C69.2022 165.921 69.0215 167.105 68.9212 168.31L68.861 169.032C68.5399 172.364 68.7004 175.715 69.3427 179.007L77.9725 223.461C77.9725 223.461 81.8861 224.444 85.2979 223.461C84.8764 220.892 78.1331 179.629 78.1331 179.629L77.7317 176.056C77.3905 173.126 77.7317 172.183 78.4542 169.333L88.4689 129.054H100.43L101.253 223.461C101.253 223.461 105.688 224.364 108.98 223.461V111.373C108.98 111.373 94.7707 114.082 80.3207 110.771Z" fill="#F1416D"/>
<path d="M108.92 110.971C108.779 110.991 94.6101 113.62 80.421 110.369L80.0196 110.269L69.0617 164.637C68.8209 165.821 68.6402 167.045 68.5198 168.249L68.4596 168.972C68.1385 172.344 68.2991 175.735 68.9413 179.067L77.6113 223.782L77.8521 223.842C77.9525 223.862 79.6784 224.283 81.8459 224.283C82.9698 224.283 84.194 224.163 85.3781 223.822L85.7193 223.721L78.4943 179.569L78.0929 175.996C77.7919 173.387 78.0327 172.424 78.6148 170.096C78.675 169.875 78.7352 169.654 78.7954 169.393L88.7699 129.435H100.009L100.832 223.762L101.153 223.822C101.333 223.862 105.708 224.725 109.06 223.822L109.361 223.741V110.891L108.92 110.971ZM108.578 223.139C105.949 223.762 102.678 223.28 101.654 223.119L100.832 129.054V129.034V128.672H100.591C100.551 128.652 100.49 128.632 100.43 128.632H84.0736C83.8529 128.632 83.6722 128.813 83.6722 129.034C83.6722 129.255 83.8529 129.435 84.0736 129.435H87.9671L78.0327 169.213C77.9725 169.454 77.9123 169.694 77.8521 169.895C77.25 172.263 76.9891 173.327 77.3102 176.077L77.7116 179.669L84.8162 223.139C82.1068 223.802 79.1566 223.28 78.2936 223.099L69.724 178.906C69.1018 175.655 68.9413 172.344 69.2423 169.052L69.3025 168.33C69.423 167.146 69.5835 165.962 69.8243 164.797L80.6418 111.252C93.3858 114.082 106.009 112.276 108.578 111.854V223.139Z" fill="#114F85"/>
<path d="M106.431 121.307C106.311 121.307 106.19 121.247 106.11 121.146L102.056 115.527C101.936 115.346 101.976 115.106 102.156 114.965C102.337 114.845 102.578 114.885 102.718 115.065L106.772 120.685C106.893 120.865 106.853 121.106 106.672 121.247C106.592 121.287 106.511 121.307 106.431 121.307Z" fill="#114F85"/>
<path d="M121.363 143.785L100.852 124.98C100.029 124.237 99.9892 122.953 100.732 122.15L107.415 114.865C107.716 114.544 108.117 114.323 108.539 114.243L111.188 113.761C111.629 113.681 112.011 113.46 112.312 113.139L115.101 110.088C115.844 109.265 117.128 109.225 117.931 109.968L136.636 127.127C137.459 127.87 137.499 129.154 136.756 129.957L124.193 143.664C123.45 144.467 122.186 144.527 121.363 143.785Z" fill="white"/>
<path d="M122.707 144.708C122.125 144.708 121.543 144.507 121.082 144.066L105.026 129.355C104.645 128.994 104.605 128.392 104.966 128.01L114.88 117.193C115.021 117.032 115.282 117.012 115.442 117.173C115.603 117.313 115.623 117.574 115.462 117.735L105.568 128.552C105.508 128.612 105.508 128.713 105.568 128.773L121.624 143.484C122.286 144.086 123.289 144.046 123.892 143.383L136.455 129.676C136.736 129.355 136.897 128.953 136.876 128.512C136.856 128.09 136.676 127.689 136.355 127.408L117.65 110.249C117.329 109.968 116.927 109.807 116.486 109.827C116.064 109.847 115.663 110.028 115.382 110.349L112.592 113.4C112.231 113.781 111.75 114.042 111.248 114.142L108.599 114.624C108.257 114.684 107.936 114.865 107.695 115.126L101.012 122.411C100.731 122.732 100.571 123.133 100.591 123.575C100.611 123.996 100.792 124.398 101.113 124.699L103.36 126.766C103.521 126.906 103.541 127.167 103.381 127.328C103.24 127.488 102.979 127.508 102.819 127.348L100.571 125.281C100.089 124.839 99.8283 124.257 99.7881 123.615C99.7681 122.973 99.9888 122.351 100.41 121.889L107.093 114.604C107.455 114.222 107.936 113.962 108.438 113.861L111.087 113.38C111.428 113.319 111.75 113.139 111.99 112.878L114.78 109.827C115.683 108.844 117.208 108.784 118.192 109.687L136.897 126.846C137.378 127.288 137.639 127.87 137.679 128.512C137.699 129.154 137.479 129.776 137.057 130.238L124.494 143.945C124.012 144.447 123.37 144.708 122.707 144.708Z" fill="#114F85"/>
<path d="M110.786 129.756C110.626 129.756 110.485 129.636 110.485 129.475C110.485 129.315 110.606 129.174 110.766 129.154L112.392 129.094C112.452 129.094 112.532 129.054 112.573 129.014C112.613 128.974 112.633 128.893 112.633 128.833L112.552 126.987C112.552 126.826 112.673 126.686 112.833 126.666C112.994 126.646 113.135 126.786 113.155 126.947L113.235 128.793C113.235 129.014 113.175 129.235 113.014 129.415C112.854 129.576 112.653 129.676 112.412 129.696L110.786 129.756C110.806 129.756 110.806 129.756 110.786 129.756Z" fill="#114F85"/>
<path d="M115.683 134.252C115.522 134.252 115.382 134.131 115.382 133.971C115.382 133.81 115.502 133.67 115.663 133.65L117.288 133.589C117.429 133.589 117.529 133.469 117.529 133.329L117.449 131.482C117.449 131.322 117.569 131.181 117.73 131.161C117.891 131.161 118.031 131.282 118.051 131.442L118.131 133.288C118.151 133.77 117.79 134.151 117.309 134.191L115.683 134.252C115.703 134.252 115.703 134.252 115.683 134.252Z" fill="#114F85"/>
<path d="M120.6 138.747C120.44 138.747 120.299 138.627 120.299 138.466C120.299 138.306 120.419 138.165 120.58 138.145L122.206 138.085C122.346 138.085 122.446 137.965 122.446 137.824L122.366 135.978C122.366 135.817 122.487 135.677 122.647 135.657C122.808 135.657 122.948 135.777 122.968 135.938L123.049 137.784C123.069 138.266 122.707 138.647 122.226 138.687L120.6 138.747Z" fill="#114F85"/>
<path d="M114.981 124.94C114.9 124.94 114.84 124.919 114.78 124.859C114.66 124.739 114.639 124.558 114.76 124.438L120.721 117.935C120.841 117.815 121.022 117.795 121.142 117.915C121.262 118.036 121.283 118.216 121.162 118.337L115.201 124.839C115.141 124.899 115.061 124.94 114.981 124.94Z" fill="#114F85"/>
<path d="M116.065 125.943C115.984 125.943 115.924 125.923 115.864 125.863C115.743 125.742 115.723 125.562 115.844 125.441L119.838 121.086C119.958 120.966 120.139 120.946 120.259 121.066C120.38 121.187 120.4 121.367 120.279 121.488L116.285 125.843C116.245 125.903 116.165 125.943 116.065 125.943Z" fill="#114F85"/>
<path d="M119.878 129.435C119.798 129.435 119.737 129.415 119.677 129.355C119.557 129.234 119.537 129.054 119.657 128.933L125.618 122.431C125.738 122.311 125.919 122.29 126.039 122.411C126.16 122.531 126.18 122.712 126.059 122.832L120.099 129.335C120.058 129.395 119.978 129.435 119.878 129.435Z" fill="#114F85"/>
<path d="M120.982 130.419C120.902 130.419 120.841 130.398 120.781 130.338C120.661 130.218 120.641 130.037 120.761 129.917L124.755 125.562C124.875 125.441 125.056 125.421 125.176 125.542C125.297 125.662 125.317 125.843 125.196 125.963L121.203 130.318C121.142 130.398 121.062 130.419 120.982 130.419Z" fill="#114F85"/>
<path d="M124.795 133.931C124.715 133.931 124.654 133.911 124.594 133.85C124.474 133.73 124.454 133.549 124.574 133.429L130.535 126.926C130.655 126.806 130.836 126.786 130.956 126.906C131.076 127.027 131.097 127.207 130.976 127.328L125.016 133.83C124.955 133.891 124.875 133.931 124.795 133.931Z" fill="#114F85"/>
<path d="M125.879 134.914C125.798 134.914 125.738 134.894 125.678 134.834C125.557 134.713 125.537 134.533 125.658 134.412L129.652 130.057C129.772 129.937 129.953 129.917 130.073 130.037C130.194 130.158 130.214 130.338 130.093 130.459L126.099 134.814C126.039 134.894 125.959 134.914 125.879 134.914Z" fill="#114F85"/>
<path d="M34.0809 72.6788C34.0809 72.6788 28.903 71.8761 28.8428 72.6788C28.7826 73.4816 29.5452 73.5418 32.1141 73.8429C34.5626 74.1238 38.1149 75.3481 40.3627 78.3384C42.6104 81.3288 51.722 94.695 51.722 94.695C51.722 94.695 54.8127 100.395 58.666 100.736C62.5394 101.097 69.1021 91.0223 69.1021 91.0223L80.2005 73.6823V94.4341V111.112C80.2005 111.112 87.9272 113.219 94.9114 112.918C101.896 112.617 108.318 111.915 109.02 111.714V73.883C109.02 73.883 114.238 80.8069 116.948 93.551C119.657 106.295 119.256 124.558 110.024 136.299C110.024 136.299 109.381 137.041 109.984 137.262C110.345 137.403 110.907 136.981 111.268 136.64C111.348 136.56 111.469 136.66 111.408 136.74C111.067 137.443 110.425 138.667 110.004 139.008C109.402 139.47 109.843 139.911 110.104 139.911C110.365 139.911 110.907 140.152 112.613 137.363C112.613 137.363 110.545 140.212 111.268 140.674C111.268 140.674 112.412 141.075 113.737 137.965C113.737 137.965 112.031 141.136 112.733 141.316C113.435 141.477 114.941 139.349 116.647 135.757C118.353 132.165 120.319 127.328 121.925 119.541C123.53 111.754 125.036 98.0666 119.416 82.2118C113.797 66.357 109.381 59.2323 94.8713 59.2323C94.8713 59.2323 83.9535 58.1686 77.5313 67.521C71.8115 75.8498 61.6162 91.0022 59.4286 94.2535C59.2279 94.5545 58.7663 94.5746 58.5456 94.2735L44.4167 75.609C44.4167 75.609 39.7405 70.3307 36.128 68.7252C36.128 68.7252 33.8802 67.8622 33.7197 68.665C33.5391 69.5279 34.5626 69.7487 35.1045 70.0497C35.1647 70.0698 35.1245 70.1702 35.0643 70.1501C34.0809 69.9695 31.4117 69.6684 30.2075 69.5681C29.0836 69.4878 28.9632 69.9494 29.1639 70.3909C29.2843 70.6719 29.6456 70.9127 29.9466 70.9328L34.3017 71.4145C34.3017 71.4145 28.6622 70.3709 28.6622 71.4747C28.602 72.3377 29.9065 72.3176 29.9065 72.3176L34.0809 72.6788Z" fill="#F5CBBF"/>
<path d="M42.6707 81.5495C44.9385 84.5399 51.722 94.695 51.722 94.695C51.722 94.695 54.8127 100.395 58.666 100.736C62.5394 101.097 69.1021 91.0223 69.1021 91.0223L80.2005 73.6823V94.4341V111.112C80.2005 111.112 87.9273 113.219 94.9114 112.918C101.896 112.617 108.318 111.915 109.02 111.714V73.883C109.02 73.883 114.238 80.807 116.948 93.5511C119.657 106.295 118.453 120.605 114.038 130.037C114.038 130.037 116.165 130.499 118.393 131.823C120.099 128.251 120.359 127.328 121.965 119.541C123.571 111.754 125.076 98.0667 119.456 82.2118C113.837 66.357 109.422 59.2323 94.9114 59.2323C94.9114 59.2323 83.9937 58.1686 77.5714 67.521C71.8516 75.8498 61.6564 91.0022 59.4688 94.2535C59.2681 94.5545 58.8065 94.5746 58.5857 94.2736L46.6444 78.4789C46.6243 78.499 45.5406 80.4658 42.6707 81.5495Z" fill="#50CD89"/>
<path d="M94.8909 101.137C94.6701 101.137 94.4895 100.957 94.4895 100.736V87.6908C94.4895 87.47 94.6701 87.2894 94.8909 87.2894C95.1116 87.2894 95.2923 87.47 95.2923 87.6908V100.736C95.2923 100.957 95.1116 101.137 94.8909 101.137Z" fill="#114F85"/>
<path d="M94.9112 63.6475L96.296 64.5306L98.885 92.4673C98.905 92.5877 98.8649 92.7081 98.7846 92.8085L95.2123 96.9227C95.0316 97.1435 94.6905 97.1234 94.5098 96.9227L91.1382 92.8085C91.0579 92.7081 91.0178 92.6078 91.0378 92.4873L93.6469 64.5306L94.9112 63.6475Z" fill="#F1416C"/>
<path d="M98.5639 84.5799L96.6975 64.4904L96.6774 64.2897L94.9113 63.1658L93.2656 64.2897L90.6566 92.4271C90.6365 92.6478 90.6967 92.8686 90.8372 93.0492L94.2089 97.1634C94.3694 97.3641 94.6103 97.4645 94.8511 97.4846C94.8511 97.4846 94.8511 97.4846 94.8712 97.4846C95.112 97.4846 95.3528 97.3842 95.5134 97.1835L99.0858 93.0693C99.2463 92.8887 99.3065 92.6679 99.2865 92.4271L98.5639 84.5799ZM98.4837 92.5475L94.9113 96.6617C94.8912 96.6818 94.8912 96.6818 94.8712 96.6818C94.8511 96.6818 94.8511 96.6818 94.831 96.6617L91.4594 92.5475C91.4594 92.5274 91.4393 92.5274 91.4393 92.5073L94.0082 64.7513L94.9113 64.1292L95.8947 64.7513L97.701 84.1585H95.0518C94.831 84.1585 94.6504 84.3391 94.6504 84.5598C94.6504 84.7806 94.831 84.9612 95.0518 84.9612H97.7612L98.4636 92.4873C98.4837 92.5073 98.4837 92.5274 98.4837 92.5475Z" fill="#114F85"/>
<path d="M38.1951 72.8995C38.175 72.8995 38.155 72.8995 38.155 72.8995C37.1916 72.6587 36.2283 71.2538 36.1882 71.1936C36.128 71.0933 36.148 70.9729 36.2484 70.9126C36.3487 70.8524 36.4691 70.8725 36.5293 70.9729C36.5293 70.9929 37.4525 72.2974 38.2754 72.5182C38.3757 72.5383 38.456 72.6587 38.4159 72.759C38.3757 72.8393 38.2955 72.8995 38.1951 72.8995Z" fill="#114F85"/>
<path d="M121.343 98.8091C121.343 98.8091 121.323 98.8091 121.343 98.8091C121.222 98.789 121.122 98.7088 121.142 98.5883C121.303 96.9627 120.701 95.4977 120.701 95.4776C120.661 95.3773 120.701 95.2569 120.801 95.2167C120.901 95.1766 121.022 95.2167 121.062 95.3171C121.082 95.3773 121.704 96.8825 121.523 98.6285C121.523 98.7288 121.443 98.8091 121.343 98.8091Z" fill="#114F85"/>
<path d="M114.057 130.218C114.88 130.479 117.55 131.342 118.091 132.385C118.814 130.519 119.296 129.194 119.296 129.194C119.296 129.194 117.489 127.288 115.081 127.388C114.198 129.375 114.138 129.596 113.937 129.937C113.857 130.037 113.917 130.178 114.057 130.218Z" fill="white"/>
<path d="M118.132 133.349L117.73 132.566C117.55 132.225 116.827 131.522 113.937 130.599C113.756 130.539 113.616 130.419 113.556 130.238C113.496 130.057 113.496 129.877 113.596 129.716C113.696 129.535 113.756 129.395 113.937 128.974C114.098 128.632 114.318 128.09 114.72 127.207L114.82 126.987H115.061C117.61 126.886 119.496 128.833 119.577 128.913L119.737 129.094L119.657 129.335C119.657 129.355 119.175 130.7 118.453 132.546L118.132 133.349ZM114.379 129.897C116.125 130.479 117.289 131.021 117.951 131.603C118.372 130.519 118.673 129.676 118.814 129.295C118.352 128.873 117.008 127.81 115.342 127.769C115.001 128.512 114.8 128.974 114.66 129.295C114.519 129.596 114.459 129.756 114.379 129.897Z" fill="#114F85"/>
<path d="M41.968 80.5661C41.968 80.5661 44.9182 78.5792 45.6006 77.1743C47.5273 79.7232 47.5273 79.7232 47.5273 79.7232C47.5273 79.7232 46.5439 82.0512 43.7542 83.135C43.1722 82.3523 41.968 80.5661 41.968 80.5661Z" fill="white"/>
<path d="M43.6339 83.5965L43.4533 83.3557C42.8512 82.5931 41.6872 80.847 41.647 80.7667L41.4263 80.4256L41.7474 80.2048C42.5501 79.6629 44.7176 78.0373 45.2394 76.9736L45.5204 76.3916L47.9889 79.6429L47.8886 79.8636C47.8484 79.964 46.8048 82.3723 43.8948 83.4962L43.6339 83.5965ZM42.5301 80.6664C42.8512 81.1481 43.4733 82.0512 43.9149 82.6332C45.8415 81.7903 46.7848 80.3052 47.0858 79.7633L45.6609 77.8767C44.818 78.9605 43.2124 80.1647 42.5301 80.6664Z" fill="#114F85"/>
<path d="M117.61 130.057C117.831 130.057 118.011 129.878 118.011 129.656C118.011 129.434 117.831 129.255 117.61 129.255C117.388 129.255 117.208 129.434 117.208 129.656C117.208 129.878 117.388 130.057 117.61 130.057Z" fill="#114F85"/>
<path d="M44.1956 81.9509C44.4172 81.9509 44.5969 81.7711 44.5969 81.5495C44.5969 81.3278 44.4172 81.1481 44.1956 81.1481C43.9739 81.1481 43.7942 81.3278 43.7942 81.5495C43.7942 81.7711 43.9739 81.9509 44.1956 81.9509Z" fill="#114F85"/>
<path d="M94.8709 65.0122C95.8573 65.0122 96.657 64.2125 96.657 63.226C96.657 62.2396 95.8573 61.4399 94.8709 61.4399C93.8844 61.4399 93.0847 62.2396 93.0847 63.226C93.0847 64.2125 93.8844 65.0122 94.8709 65.0122Z" fill="#F58C71"/>
<path d="M94.8709 65.4136C93.6668 65.4136 92.6833 64.4302 92.6833 63.2261C92.6833 62.0219 93.6668 61.0385 94.8709 61.0385C96.0751 61.0385 97.0585 62.0219 97.0585 63.2261C97.0585 64.4302 96.0751 65.4136 94.8709 65.4136ZM94.8709 61.8413C94.1083 61.8413 93.4861 62.4634 93.4861 63.2261C93.4861 63.9887 94.1083 64.6108 94.8709 64.6108C95.6335 64.6108 96.2557 63.9887 96.2557 63.2261C96.2557 62.4634 95.6335 61.8413 94.8709 61.8413Z" fill="#114F85"/>
<path d="M58.9468 99.0501C58.1239 99.0501 57.4014 98.8092 57.3613 98.7891C57.2609 98.749 57.2007 98.6286 57.2408 98.5282C57.281 98.4279 57.4014 98.3676 57.5017 98.4078C57.5218 98.4078 59.0471 98.9497 60.0907 98.4078C60.1911 98.3676 60.3115 98.4078 60.3516 98.4881C60.3918 98.5884 60.3516 98.7088 60.2714 98.749C59.8298 98.9898 59.3682 99.0501 58.9468 99.0501Z" fill="#114F85"/>
<path d="M87.887 60.1153L91.359 64.4503C91.4995 64.6309 91.8005 64.6309 91.941 64.4503L94.5902 61.1389C94.7507 60.9382 95.0518 60.9382 95.1922 61.1389L97.8615 64.6711C98.002 64.8718 98.303 64.8718 98.4435 64.6911L102.257 60.0952C102.257 60.0952 99.0054 59.2724 94.8711 59.2523C90.797 59.1921 87.887 60.1153 87.887 60.1153Z" fill="#50CD89"/>
<path d="M98.1826 65.233C98.1625 65.233 98.1625 65.233 98.1826 65.233C97.9217 65.233 97.7009 65.1126 97.5604 64.932L94.8912 61.3998L92.242 64.7112C92.1015 64.8919 91.8808 64.9922 91.6399 64.9922C91.3991 64.9922 91.1783 64.8919 91.0379 64.6912L87.2046 59.9146L87.7665 59.734C87.8869 59.6939 90.797 58.7907 94.9113 58.8309C99.0456 58.871 102.237 59.6537 102.377 59.6939L102.999 59.8544L98.7847 64.9521C98.6241 65.1327 98.4034 65.233 98.1826 65.233ZM94.8912 60.597C95.1521 60.597 95.3729 60.7174 95.5133 60.9181L98.1625 64.4303L101.534 60.3562C100.41 60.1153 97.8615 59.6738 94.8912 59.6537C91.941 59.6337 89.6129 60.1153 88.5693 60.3762L91.6399 64.2095L94.269 60.9181C94.4296 60.6973 94.6504 60.597 94.8912 60.597Z" fill="#114F85"/>
<path d="M119.817 82.0713C116.988 74.0636 114.479 68.3237 110.786 64.4905C107.013 60.5769 102.116 58.8309 94.9112 58.8309C94.6302 58.8108 91.961 58.5901 88.5291 59.4731C85.2378 60.316 80.6017 62.3631 77.21 67.3002C71.45 75.6892 61.1143 91.0424 59.1073 94.0327C59.0672 94.0929 59.027 94.0929 59.007 94.0929C58.9869 94.0929 58.9267 94.0929 58.8866 94.0327L44.7577 75.3681L44.7376 75.3481C44.5369 75.1273 39.9611 69.9694 36.2884 68.3438C35.8669 68.1833 34.4219 67.6614 33.7395 68.0428C33.5388 68.1632 33.3984 68.3438 33.3381 68.5646C33.2579 68.9459 33.3382 69.2469 33.5188 69.4878C32.3547 69.3473 30.99 69.2068 30.2475 69.1466C29.545 69.1064 29.0834 69.2269 28.8426 69.568C28.662 69.829 28.6419 70.1701 28.8025 70.5314C28.8225 70.5916 28.8627 70.6518 28.9028 70.712C28.7422 70.7521 28.6218 70.8324 28.5215 70.9127C28.3609 71.0532 28.2606 71.2338 28.2606 71.4345C28.2405 71.7355 28.3409 71.9964 28.5415 72.2172C28.5616 72.2373 28.5817 72.2573 28.6018 72.2774C28.4813 72.3978 28.4613 72.5383 28.4412 72.6186C28.3609 73.5017 29.0834 73.7224 29.3243 73.8027C29.8461 73.9633 30.6488 74.0636 31.8931 74.184L32.0537 74.2041C33.2579 74.3446 37.3922 75.047 40.0413 78.5391C42.2289 81.4291 51.0193 94.3337 51.3806 94.8555C51.6214 95.277 54.672 100.736 58.6457 101.097C58.726 101.097 58.7862 101.117 58.8665 101.117C62.9406 101.117 69.1822 91.6244 69.4431 91.223L79.7989 75.047V111.413L80.1 111.493C80.1802 111.513 87.9672 113.62 94.9313 113.319C101.956 113.018 108.398 112.316 109.12 112.095L109.421 112.015V75.1875C110.907 77.5155 114.479 83.8776 116.546 93.6313C119.155 105.874 118.914 124.318 109.702 136.038C109.622 136.138 109.221 136.64 109.341 137.122C109.401 137.363 109.582 137.543 109.843 137.644C110.024 137.724 110.224 137.724 110.465 137.664C110.184 138.125 109.903 138.547 109.722 138.768C109.281 139.289 109.361 139.691 109.462 139.891C109.582 140.152 109.843 140.333 110.144 140.333H110.184C110.365 140.333 110.545 140.333 110.766 140.233C110.746 140.353 110.766 140.453 110.766 140.534C110.826 140.815 110.967 140.955 111.087 141.035L111.127 141.055L111.167 141.076C111.288 141.116 111.689 141.216 112.211 140.875C112.191 141.076 112.211 141.256 112.271 141.377C112.352 141.557 112.492 141.678 112.673 141.718C112.733 141.738 112.773 141.738 112.833 141.738C113.797 141.738 115.222 139.791 117.048 135.958C118.653 132.586 120.7 127.709 122.366 119.641C124.975 106.857 124.112 94.2334 119.817 82.0713ZM121.543 119.461C119.898 127.428 117.871 132.265 116.285 135.597C114.499 139.329 113.395 140.594 112.974 140.875C113.034 140.554 113.235 139.952 113.536 139.289C113.716 138.968 113.897 138.607 114.098 138.165L114.158 138.065C114.278 137.864 114.198 137.624 114.017 137.523C113.817 137.403 113.576 137.483 113.475 137.664L113.415 137.764C113.415 137.764 113.415 137.764 113.415 137.784C113.235 138.105 113.034 138.527 112.833 138.948C112.271 139.911 111.79 140.233 111.529 140.293C111.549 140.012 111.81 139.43 112.211 138.747C112.432 138.426 112.693 138.045 112.974 137.603L113.014 137.543C113.134 137.363 113.074 137.102 112.893 136.981C112.713 136.861 112.452 136.921 112.332 137.102L112.291 137.162C112.131 137.403 111.81 137.844 111.509 138.346C110.927 139.149 110.485 139.55 110.204 139.51H110.184C110.204 139.47 110.224 139.39 110.325 139.269C110.686 138.848 111.428 137.664 111.77 136.921C111.87 136.7 111.81 136.439 111.609 136.299C111.408 136.158 111.147 136.179 110.987 136.339C110.445 136.861 110.164 136.901 110.124 136.881C110.144 136.801 110.224 136.64 110.325 136.54C114.619 131.081 117.309 123.956 118.352 115.346C119.195 108.302 118.834 100.535 117.329 93.4708C115.041 82.7135 110.947 76.0304 109.743 74.2242C109.582 74.0034 109.321 73.903 109.06 73.9833C108.799 74.0636 108.619 74.3044 108.619 74.5653V111.393C107.214 111.634 101.574 112.216 95.3126 112.497V103.927C95.3126 103.706 95.132 103.526 94.9112 103.526C94.6905 103.526 94.5098 103.706 94.5098 103.927V112.537C88.5492 112.717 82.0668 111.172 80.6017 110.811V74.4249C80.6017 74.1439 80.4211 73.9031 80.1602 73.8428C79.8993 73.7626 79.6183 73.8629 79.4778 74.1037L68.7808 90.8216C66.9946 93.5711 61.6762 100.615 58.726 100.355C55.1135 100.033 52.1232 94.5746 52.1031 94.5144L52.083 94.4742C51.9827 94.3338 42.9514 81.0678 40.7036 78.0976C37.8738 74.3446 33.4586 73.602 32.1741 73.4415L32.0136 73.4214C30.8295 73.2809 30.0468 73.2006 29.6052 73.0601C29.3443 72.9799 29.2841 72.9196 29.264 72.8193C29.3845 72.7591 29.6253 72.739 29.9464 72.7189L34.0606 73.0802L34.2613 73.1203C34.2814 73.1203 34.3015 73.1203 34.3216 73.1203C34.5222 73.1203 34.6828 72.9798 34.7229 72.7792C34.7631 72.5584 34.6025 72.3577 34.4018 72.3176L34.1811 72.2774C33.2177 72.1369 31.3513 71.876 30.0267 71.9162H29.9464C29.7658 71.9162 29.3243 71.856 29.1637 71.6753C29.1236 71.6352 29.1035 71.5951 29.1035 71.5148C29.2641 71.4144 29.6855 71.3542 30.2876 71.3542L34.2814 71.7958L34.5222 71.8158C34.5423 71.8158 34.5423 71.8158 34.5624 71.8158C34.7631 71.8158 34.9437 71.6553 34.9638 71.4546C34.9838 71.2338 34.8233 71.0331 34.6025 71.013L34.3818 70.993C33.6392 70.8525 31.8129 70.5514 30.3679 70.5514L30.0066 70.5113C29.8461 70.4912 29.6052 70.3307 29.545 70.2103C29.5049 70.1099 29.5049 70.0497 29.5049 70.0296C29.5049 70.0296 29.6253 69.9092 30.1872 69.9494C31.4316 70.0296 34.0807 70.3508 35.0039 70.5113C35.2247 70.5514 35.4454 70.431 35.5257 70.2103C35.606 69.9895 35.5057 69.7687 35.325 69.6483C35.2046 69.5881 35.0842 69.5279 34.9437 69.4677C34.3015 69.1867 34.0807 69.0262 34.1409 68.7251C34.3416 68.6047 35.2447 68.7653 35.9873 69.0663C39.3991 70.5916 43.8947 75.5688 44.1355 75.8498L58.2443 94.4943C58.425 94.7351 58.726 94.8756 59.027 94.8756C59.3281 94.8756 59.6091 94.7151 59.7897 94.4542C61.7966 91.4638 72.1525 76.1107 77.8923 67.7217C84.0938 58.6703 94.7507 59.5935 94.8711 59.5935H94.9112C109.421 59.5935 113.596 66.8587 119.075 82.3121C123.31 94.3538 124.152 106.837 121.543 119.461Z" fill="#114F85"/>
<path d="M105.427 77.4553H100.912C100.751 77.4553 100.611 77.3148 100.611 77.1542C100.611 76.9937 100.751 76.8532 100.912 76.8532H105.427C105.588 76.8532 105.728 76.9937 105.728 77.1542C105.728 77.3148 105.588 77.4553 105.427 77.4553Z" fill="#114F85"/>
<path d="M108.197 66.4572C108.137 66.4572 108.077 66.4371 108.037 66.3769C106.23 64.1894 103.702 63.4267 103.661 63.4066C103.561 63.3665 103.501 63.2662 103.521 63.1658C103.561 63.0655 103.661 63.0053 103.762 63.0253C103.862 63.0655 106.431 63.8281 108.338 66.116C108.418 66.1963 108.398 66.3368 108.318 66.397C108.277 66.4371 108.237 66.4572 108.197 66.4572Z" fill="white"/>
<path d="M98.1624 51.2045H91.6399V59.7139C91.6399 59.9949 91.8205 60.2156 92.0614 60.316C92.9645 60.617 95.1319 61.1589 97.7209 60.2959C97.9818 60.2156 98.1624 59.9748 98.1624 59.6938V51.2045Z" fill="#F5CBBF"/>
<path d="M94.8912 61.1388C93.5264 61.1388 92.4828 60.8578 91.941 60.6772C91.5195 60.5367 91.2385 60.1353 91.2385 59.6938V50.803H98.5638V59.6938C98.5638 60.1353 98.2829 60.5367 97.8614 60.6772C96.7777 61.0184 95.7742 61.1388 94.8912 61.1388ZM92.0413 51.6058V59.7139C92.0413 59.8142 92.1015 59.8945 92.2019 59.9346C93.0046 60.1955 95.1119 60.7374 97.6005 59.9146C97.7009 59.8744 97.7611 59.7942 97.7611 59.6938V51.6058H92.0413Z" fill="#114F85"/>
<path d="M83.0704 26.9405C83.0704 26.9405 88.8504 32.6001 102.979 30.9544C103.14 30.9343 103.28 31.0347 103.341 31.1752C104.525 34.3261 106.03 36.1323 109.402 37.497C109.402 37.497 112.492 37.2964 112.813 38.9822C115.543 36.5739 121.022 29.4893 115.563 24.7931C115.543 24.7931 115.563 24.773 115.563 24.7529C115.944 24.6125 119.737 23.1273 117.871 20.7993C115.944 18.3909 116.566 23.6893 114.278 23.7093C114.218 23.7093 114.158 23.6692 114.138 23.609C113.857 22.9066 111.85 18.2103 107.776 16.6048C103.361 14.8587 99.2464 18.5916 92.1619 12.33C87.7466 8.41643 83.2711 9.03858 79.8593 11.1057C75.6045 13.6746 72.2931 20.7993 80.8025 31.2555L83.0704 26.9405Z" fill="#00B2FF"/>
<path d="M112.552 39.7448L112.412 39.0625C112.151 37.7579 109.441 37.9185 109.401 37.9185H109.301L109.221 37.8784C105.949 36.5538 104.243 34.7877 102.959 31.3759C90.7366 32.7807 84.7359 28.827 83.1905 27.5827L80.9026 31.998L80.5213 31.5163C75.2831 25.0741 74.7814 20.2373 75.3032 17.3072C75.7849 14.5577 77.3704 12.1694 79.6984 10.7645C82.2272 9.23926 87.2245 7.3728 92.4827 12.0289C96.9582 15.9826 100.229 15.8622 103.119 15.7217C104.765 15.6615 106.331 15.5812 107.976 16.2234C111.93 17.7888 113.977 22.0436 114.499 23.2678C115.141 23.1474 115.462 22.3446 115.823 21.3411C116.104 20.5384 116.345 19.856 116.947 19.7556C117.469 19.6754 117.931 20.157 118.232 20.5183C118.774 21.1806 118.934 21.883 118.754 22.5453C118.432 23.7093 117.108 24.492 116.305 24.8734C117.63 26.1979 118.312 27.7634 118.332 29.5495C118.352 33.5634 114.92 37.6576 113.114 39.2431L112.552 39.7448ZM109.722 37.0956C110.485 37.0956 112.291 37.2161 112.974 38.2998C114.76 36.5939 117.509 33.0416 117.509 29.5897C117.509 27.8436 116.767 26.3384 115.322 25.0941C115.201 24.9938 115.161 24.8533 115.181 24.6927L115.221 24.472L115.442 24.3716C116.245 24.0706 117.69 23.3079 117.971 22.3446C118.091 21.9231 117.971 21.5017 117.59 21.02C117.228 20.5584 117.068 20.5384 117.068 20.5384C116.927 20.5986 116.707 21.2207 116.586 21.602C116.205 22.6457 115.703 24.0706 114.338 24.0706C114.097 24.0706 113.917 23.9301 113.837 23.7294C113.616 23.2076 111.649 18.5113 107.695 16.9459C106.23 16.3639 104.745 16.4241 103.18 16.5044C100.129 16.6248 96.6772 16.7854 91.9809 12.5909C87.3649 8.49669 82.9898 9.68079 80.16 11.4268C78.0527 12.7113 76.5876 14.8988 76.1461 17.4075C75.6845 20.0968 76.1261 24.5322 80.8223 30.4928L83.0299 26.218L83.4113 26.5993C83.4915 26.6595 89.2716 32.0984 102.999 30.5129C103.34 30.4727 103.661 30.6734 103.782 30.9945C104.986 34.2057 106.511 35.8112 109.542 37.0555C109.522 37.0957 109.622 37.0956 109.722 37.0956Z" fill="#114F85"/>
<path d="M111.16 43.4528C112.917 42.4386 113.658 40.4337 112.815 38.9747C111.973 37.5157 109.866 37.1551 108.11 38.1693C106.353 39.1835 105.612 41.1884 106.454 42.6474C107.297 44.1064 109.403 44.467 111.16 43.4528Z" fill="#F5CBBF"/>
<path d="M109.1 44.4411C107.856 44.4411 106.712 43.8792 106.11 42.8557C105.147 41.21 105.95 38.9421 107.896 37.8182C109.843 36.6943 112.191 37.1358 113.154 38.7815C114.118 40.4272 113.315 42.6951 111.368 43.819C110.646 44.2405 109.863 44.4411 109.1 44.4411ZM110.184 37.9988C109.562 37.9988 108.92 38.1594 108.318 38.5206C106.752 39.4238 106.09 41.1899 106.813 42.4543C107.535 43.7186 109.401 44.0197 110.967 43.1166C112.532 42.2134 113.195 40.4473 112.472 39.1829C112.031 38.4203 111.148 37.9988 110.184 37.9988Z" fill="#114F85"/>
<path d="M107.816 42.0328C107.696 42.0328 107.555 41.9726 107.475 41.8522C107.354 41.6715 107.395 41.4106 107.575 41.2902C109.361 40.086 111.388 40.0258 111.469 40.0258C111.689 40.0258 111.87 40.1864 111.89 40.4071C111.89 40.6279 111.73 40.8085 111.509 40.8286C111.469 40.8286 109.622 40.9089 108.037 41.9525C107.957 42.0127 107.896 42.0328 107.816 42.0328Z" fill="#114F85"/>
<path d="M94.6505 53.1311C102.797 53.1311 109.402 45.8979 109.402 36.9752C109.402 28.0526 102.797 20.8193 94.6505 20.8193C86.5037 20.8193 79.8994 28.0526 79.8994 36.9752C79.8994 45.8979 86.5037 53.1311 94.6505 53.1311Z" fill="#F5CBBF"/>
<path d="M94.6505 53.5326C86.3016 53.5326 79.498 46.1069 79.498 36.9753C79.498 27.8437 86.3016 20.418 94.6505 20.418C102.999 20.418 109.803 27.8437 109.803 36.9753C109.803 46.1069 102.999 53.5326 94.6505 53.5326ZM94.6505 21.2207C86.7431 21.2207 80.3008 28.2852 80.3008 36.9753C80.3008 45.6653 86.7431 52.7298 94.6505 52.7298C102.558 52.7298 109 45.6653 109 36.9753C109 28.2852 102.558 21.2207 94.6505 21.2207Z" fill="#114F85"/>
<path d="M87.3452 39.4437C87.7663 39.4437 88.1078 39.1023 88.1078 38.6811C88.1078 38.2599 87.7663 37.9185 87.3452 37.9185C86.924 37.9185 86.5825 38.2599 86.5825 38.6811C86.5825 39.1023 86.924 39.4437 87.3452 39.4437Z" fill="#114F85"/>
<path d="M99.3666 39.4437C99.7878 39.4437 100.129 39.1023 100.129 38.6811C100.129 38.2599 99.7878 37.9185 99.3666 37.9185C98.9454 37.9185 98.604 38.2599 98.604 38.6811C98.604 39.1023 98.9454 39.4437 99.3666 39.4437Z" fill="#114F85"/>
<path d="M84.3947 35.6306C84.3746 35.6306 84.3746 35.6306 84.3545 35.6306C84.1337 35.6306 83.9531 35.4499 83.9531 35.2292C83.9531 35.0084 84.1337 34.8278 84.3545 34.8278C84.3746 34.8278 86.241 34.8478 87.8666 33.8444C88.0473 33.724 88.3082 33.7842 88.4085 33.9849C88.5089 34.1856 88.4687 34.4264 88.268 34.5267C86.5822 35.5904 84.6756 35.6306 84.3947 35.6306Z" fill="#114F85"/>
<path d="M102.337 34.3662C102.277 34.3662 102.196 34.3462 102.136 34.306C102.116 34.306 100.511 33.3627 98.6041 33.4229C98.3833 33.4229 98.2027 33.2624 98.1826 33.0416C98.1826 32.8209 98.3432 32.6402 98.5639 32.6202C100.711 32.5599 102.457 33.5634 102.538 33.6036C102.738 33.724 102.799 33.9648 102.678 34.1455C102.598 34.2859 102.457 34.3662 102.337 34.3662Z" fill="#114F85"/>
<path d="M96.2159 39.0826C96.1757 39.0826 96.1155 39.0826 96.0754 39.0625C92.9847 37.8583 90.6767 39.0424 90.6566 39.0424C90.4559 39.1428 90.2151 39.0625 90.1147 38.8618C90.0144 38.6611 90.0947 38.4203 90.2954 38.3199C90.3957 38.2597 92.9646 36.9752 96.3764 38.2998C96.5771 38.3801 96.6775 38.621 96.5972 38.8217C96.537 38.9822 96.3764 39.0826 96.2159 39.0826Z" fill="#114F85"/>
<path d="M85.6594 43.5581C87.0117 43.5581 88.1079 42.8662 88.1079 42.0127C88.1079 41.1592 87.0117 40.4673 85.6594 40.4673C84.3072 40.4673 83.2109 41.1592 83.2109 42.0127C83.2109 42.8662 84.3072 43.5581 85.6594 43.5581Z" fill="#F58C71"/>
<path d="M101.193 43.5581C102.545 43.5581 103.641 42.8662 103.641 42.0127C103.641 41.1592 102.545 40.4673 101.193 40.4673C99.8406 40.4673 98.7444 41.1592 98.7444 42.0127C98.7444 42.8662 99.8406 43.5581 101.193 43.5581Z" fill="#F58C71"/>
<path d="M84.194 39.0825C84.1539 39.0825 84.1138 39.0825 84.0937 39.0624L79.7989 37.8784C79.5781 37.8181 79.4577 37.5974 79.5179 37.3766C79.5781 37.1559 79.7989 37.0354 80.0196 37.0956L84.3145 38.2797C84.5352 38.34 84.6556 38.5607 84.5954 38.7815C84.5352 38.9621 84.3747 39.0825 84.194 39.0825Z" fill="#114F85"/>
<path d="M102.498 39.0825C102.297 39.0825 102.137 38.942 102.096 38.7413C102.056 38.5206 102.197 38.3199 102.418 38.2797L109.321 37.0956C109.542 37.0555 109.743 37.196 109.783 37.4168C109.823 37.6375 109.683 37.8382 109.462 37.8784L102.558 39.0624C102.538 39.0825 102.518 39.0825 102.498 39.0825Z" fill="#114F85"/>
<path d="M93.4663 42.4141C92.6435 42.4141 92.0213 41.9926 91.9812 41.9725C91.8006 41.8521 91.7404 41.5912 91.8808 41.4106C92.0013 41.23 92.2622 41.1698 92.4428 41.2902C92.4829 41.3303 93.4864 41.9525 94.3695 41.3102C94.5501 41.1698 94.7909 41.2099 94.9314 41.3905C95.0719 41.5712 95.0317 41.812 94.8511 41.9525C94.3694 42.2936 93.8878 42.4141 93.4663 42.4141Z" fill="#114F85"/>
<path d="M93.5066 46.0868C91.4194 46.0868 89.8941 44.6418 89.854 44.6217C89.6935 44.4611 89.6934 44.2203 89.8339 44.0598C89.9945 43.8992 90.2353 43.8992 90.3959 44.0397C90.5163 44.1601 93.3461 46.8093 96.3765 44.0397C96.5371 43.8992 96.798 43.8992 96.9385 44.0598C97.079 44.2203 97.0789 44.4812 96.9184 44.6217C95.7343 45.7255 94.5502 46.0868 93.5066 46.0868Z" fill="#114F85"/>
<path d="M89.3719 41.1898H85.1171C84.4749 41.1898 83.9531 40.668 83.9531 40.0258V37.3164C83.9531 36.6742 84.4749 36.1524 85.1171 36.1524H89.3719C90.0141 36.1524 90.5359 36.6742 90.5359 37.3164V40.0459C90.5359 40.668 90.0141 41.1898 89.3719 41.1898ZM85.1372 36.9953C84.9365 36.9953 84.776 37.1559 84.776 37.3566V40.0459C84.776 40.2466 84.9365 40.4071 85.1372 40.4071H89.3919C89.5926 40.4071 89.7532 40.2466 89.7532 40.0459V37.3365C89.7532 37.1358 89.5926 36.9753 89.3919 36.9753H85.1372V36.9953Z" fill="#114F85"/>
<path d="M101.474 41.1898H97.2192C96.577 41.1898 96.0552 40.668 96.0552 40.0258V37.3164C96.0552 36.6742 96.577 36.1524 97.2192 36.1524H101.474C102.116 36.1524 102.638 36.6742 102.638 37.3164V40.0459C102.638 40.668 102.116 41.1898 101.474 41.1898ZM97.2393 36.9953C97.0386 36.9953 96.878 37.1559 96.878 37.3566V40.0459C96.878 40.2466 97.0386 40.4071 97.2393 40.4071H101.494C101.695 40.4071 101.855 40.2466 101.855 40.0459V37.3365C101.855 37.1358 101.695 36.9753 101.494 36.9753H97.2393V36.9953Z" fill="#114F85"/>
<path d="M110.184 37.6375C106.732 36.2327 105.227 34.3662 104.023 31.0547C89.7132 32.8008 80.6819 24.8934 80.6819 24.8934L88.1076 18.6117L105.949 20.7993L112.753 31.2554L110.184 37.6375Z" fill="#00B2FF"/>
<path d="M110.224 37.8784C110.164 37.8784 110.124 37.8784 110.064 37.8583C106.812 36.5337 105.127 34.8078 103.842 31.4963C103.802 31.416 103.722 31.3759 103.641 31.3759C96.296 32.1787 90.3956 30.4125 86.7229 28.807C82.7492 27.061 80.5416 25.1544 80.4412 25.0741C80.2807 24.9336 80.2606 24.6727 80.4011 24.5121C80.5416 24.3516 80.8025 24.3315 80.963 24.472C81.0433 24.5523 89.8538 32.0582 103.541 30.5731C103.983 30.533 104.424 30.7738 104.585 31.1953C105.789 34.3261 107.314 35.8714 110.365 37.1157C110.565 37.196 110.666 37.4369 110.585 37.6375C110.545 37.778 110.385 37.8784 110.224 37.8784Z" fill="#114F85"/>
<path d="M112.452 35.5101C112.352 35.5101 112.251 35.47 112.191 35.3697C112.091 35.2292 112.131 35.0485 112.271 34.9482C114.359 33.5634 114.72 30.9343 114.72 30.9143C114.74 30.7537 114.9 30.6333 115.061 30.6534C115.222 30.6734 115.342 30.834 115.322 30.9945C115.302 31.115 114.92 33.9247 112.612 35.4499C112.552 35.5101 112.512 35.5101 112.452 35.5101Z" fill="white"/>
<path d="M103.14 28.1447C96.1356 28.1447 90.9979 24.8935 87.8871 22.1239C87.7667 22.0035 87.7466 21.8228 87.867 21.7024C87.9875 21.582 88.1681 21.5619 88.2885 21.6823C91.3792 24.4519 96.5571 27.7032 103.622 27.5426C103.782 27.5225 103.923 27.663 103.923 27.8437C103.923 28.0042 103.802 28.1447 103.622 28.1447C103.481 28.1447 103.321 28.1447 103.14 28.1447Z" fill="#114F85"/>
<path d="M85.6593 19.7155C85.579 19.7155 85.4987 19.6754 85.4385 19.6152C83.6925 17.6082 82.8094 16.0428 82.7894 15.9826C82.7091 15.8421 82.7693 15.6615 82.9098 15.5812C83.0503 15.501 83.2309 15.5612 83.3112 15.7017C83.3112 15.7217 84.1942 17.2671 85.9001 19.2339C86.0005 19.3543 86.0005 19.555 85.8801 19.6553C85.7998 19.6955 85.7396 19.7155 85.6593 19.7155Z" fill="#114F85"/>
<path d="M110.826 37.7379C110.766 37.7379 110.726 37.7178 110.666 37.6978C107.615 35.8514 106.873 30.834 106.853 30.6333C106.832 30.4727 106.953 30.3122 107.113 30.2921C107.274 30.272 107.435 30.3925 107.455 30.553C107.455 30.5932 108.177 35.4901 110.987 37.196C111.127 37.2763 111.167 37.4569 111.087 37.6175C111.047 37.6978 110.947 37.7379 110.826 37.7379Z" fill="#114F85"/>
<path d="M94.9715 55.7402C94.2089 55.7402 93.6068 55.4792 93.5667 55.4792C93.4663 55.4391 93.4262 55.3187 93.4663 55.2183C93.5064 55.118 93.6269 55.0778 93.7272 55.118C93.7473 55.118 94.9715 55.6398 96.0754 55.118C96.1757 55.0778 96.2961 55.118 96.3363 55.2183C96.3764 55.3187 96.3363 55.4391 96.2359 55.4792C95.8145 55.6799 95.3529 55.7402 94.9715 55.7402Z" fill="#114F85"/>
<path d="M72.4734 173.588C72.2928 173.588 72.1322 173.568 71.9717 173.528C70.8679 173.247 70.326 172.123 70.3059 172.083C70.2658 171.982 70.3059 171.862 70.4063 171.822C70.5066 171.782 70.627 171.822 70.6672 171.922C70.6672 171.922 71.1689 172.926 72.072 173.166C72.634 173.307 73.2762 173.146 73.9385 172.665C74.0187 172.604 74.1592 172.625 74.2194 172.705C74.2797 172.785 74.2596 172.926 74.1793 172.986C73.5772 173.387 73.0153 173.588 72.4734 173.588Z" fill="#114F85"/>
<path d="M105.066 174.27C105.026 174.27 104.986 174.27 104.966 174.27C103.822 174.21 103.06 173.207 103.019 173.166C102.959 173.086 102.979 172.946 103.06 172.885C103.14 172.825 103.28 172.845 103.34 172.926C103.34 172.926 104.023 173.829 104.986 173.869C105.568 173.909 106.15 173.608 106.692 173.006C106.772 172.926 106.893 172.926 106.973 173.006C107.053 173.086 107.053 173.207 106.993 173.287C106.371 173.949 105.729 174.27 105.066 174.27Z" fill="#114F85"/>
<path d="M81.5448 121.307C81.4645 121.307 81.3842 121.287 81.3039 121.227C81.1233 121.106 81.0832 120.845 81.2036 120.665L85.2577 115.045C85.3781 114.865 85.639 114.825 85.8196 114.945C86.0002 115.065 86.0404 115.326 85.92 115.507L81.8659 121.126C81.7856 121.247 81.6652 121.307 81.5448 121.307Z" fill="#114F85"/>
<path d="M58.4851 181.796C58.3646 181.796 58.2442 181.716 58.2041 181.596C55.2338 173.648 57.6421 163.854 57.6823 163.754C57.7224 163.593 57.883 163.493 58.0435 163.533C58.2041 163.573 58.3044 163.734 58.2643 163.894C58.2442 163.995 55.856 173.608 58.766 181.375C58.8262 181.535 58.746 181.696 58.5854 181.756C58.5453 181.796 58.5252 181.796 58.4851 181.796Z" fill="white"/>
<path d="M102.638 78.4989C102.558 78.4989 102.457 78.4588 102.397 78.3785L101.534 77.3349C101.434 77.2145 101.454 77.0138 101.574 76.9134C101.695 76.8131 101.895 76.8332 101.996 76.9536L102.859 77.9972C102.959 78.1176 102.939 78.3183 102.818 78.4186C102.758 78.4788 102.698 78.4989 102.638 78.4989Z" fill="#114F85"/>
<path d="M104.585 78.4989C104.505 78.4989 104.404 78.4588 104.344 78.3785L103.481 77.3349C103.381 77.2145 103.401 77.0138 103.521 76.9134C103.642 76.8131 103.842 76.8332 103.943 76.9536L104.806 77.9972C104.906 78.1176 104.886 78.3183 104.766 78.4186C104.705 78.4788 104.645 78.4989 104.585 78.4989Z" fill="#114F85"/>
<path d="M121.142 63.2863C121.022 63.2863 120.901 63.206 120.861 63.0856C119.155 58.1685 114.72 56.5028 114.66 56.4827C114.499 56.4225 114.419 56.2619 114.479 56.1014C114.539 55.9408 114.7 55.8605 114.86 55.9207C115.061 56.001 119.597 57.727 121.423 62.8849C121.483 63.0455 121.403 63.206 121.242 63.2662C121.202 63.2863 121.182 63.2863 121.142 63.2863Z" fill="white"/>
</svg>
